#!OML:ASF Y:\EmotionMaleHayes\Project 1\Capture day 1\Session 1\Male1.ASF
:FULLY-SPECIFIED
:DEGREES
1794
root -20.3507 16.7201 15.206 -184.186 308.973 -537.297
lowerback 6.21704 2.24205 2.93638
upperback 6.2853 2.63515 3.36391
thorax 3.00032 1.18581 1.73139
lowerneck -16.3881 -7.04736 -4.19009
upperneck 24.5015 -16.5046 19.444
head 13.2128 -6.10632 5.23587
rclavicle -1.27222e-014 -4.77083e-014
rhumerus -18.3056 25.189 -90.0922
rradius 39.1446
rwrist -0.367452
rhand -9.56648 -30.945
rfingers 7.12502
rthumb 16.4011 -60.2716
lclavicle -1.27222e-014 -4.77083e-014
lhumerus -29.8341 -11.4052 92.7126
lradius 29.0543
lwrist 2.05452
lhand -18.8388 -26.2736
lfingers 7.12502
lthumb 7.46077 3.5748
rfemur 6.61482 0.52528 29.8323
rtibia 11.8713
rfoot -19.9769 0.952784
rtoes 26.6015
lfemur -16.8756 4.82334 -9.44162
ltibia 51.7678
lfoot -11.8159 6.95356
ltoes -15.6557
1795
root -20.4479 16.7167 15.1541 -184.488 309.899 -536.867
lowerback 6.28068 2.37881 3.32778
upperback 6.32258 2.82519 3.31383
thorax 3.02731 1.29324 1.45446
lowerneck -16.1975 -7.00969 -4.48286
upperneck 24.3082 -16.3087 19.5119
head 13.0915 -6.06092 5.34975
rclavicle 1.31993e-013 -5.32743e-014
rhumerus -17.7294 25.3684 -90.1339
rradius 39.3765
rwrist 0.224053
rhand -9.67656 -30.9453
rfingers 7.12502
rthumb 16.2951 -60.2806
lclavicle 1.31993e-013 -5.32743e-014
lhumerus -29.6179 -10.9563 92.163
lradius 29.0032
lwrist 1.69392
lhand -18.8998 -26.2165
lfingers 7.12502
lthumb 7.40183 3.63397
rfemur 7.00648 1.41043 30.3884
rtibia 11.989
rfoot -20.1637 1.04052
rtoes 26.479
lfemur -17.6553 4.63232 -8.87423
ltibia 50.3658
lfoot -12.1209 6.92857
ltoes -13.9821
1796
root -20.5528 16.7117 15.1018 -184.46 310.857 -536.863
lowerback 6.31409 2.48521 3.48102
upperback 6.35707 2.97542 3.1281
thorax 3.06355 1.37855 1.17253
lowerneck -16.2853 -6.96452 -4.35543
upperneck 24.5252 -16.1689 19.0858
head 13.1092 -6.01053 5.19091
rclavicle 2.18663e-015 -8.18993e-014
rhumerus -17.117 25.1854 -90.4006
rradius 39.2977
rwrist 0.958261
rhand -9.85375 -30.3435
rfingers 7.12502
rthumb 16.1245 -59.6927
lclavicle 2.18663e-015 -8.18993e-014
lhumerus -29.4005 -10.1356 91.3956
lradius 28.8513
lwrist 0.881881
lhand -18.7796 -26.1362
lfingers 7.12502
lthumb 7.51791 3.71015
rfemur 7.40535 1.99403 30.5089
rtibia 12.0859
rfoot -20.2274 1.18637
rtoes 25.5243
lfemur -18.3127 4.468 -8.60906
ltibia 48.849
lfoot -12.4235 6.77192
ltoes -10.8128
1797
root -20.6639 16.7061 15.0498 -184.308 311.601 -537.094
lowerback 6.3281 2.52371 3.53359
upperback 6.41962 3.03264 2.86404
thorax 3.13876 1.4168 0.870664
lowerneck -16.5093 -6.97103 -4.08023
upperneck 24.9055 -16.1289 18.4674
head 13.204 -5.99297 4.91291
rclavicle 1.37161e-014 2.94201e-014
rhumerus -16.871 27.1593 -90.6089
rradius 40.2712
rwrist -0.722767
rhand -10.1993 -30.5506
rfingers 7.12502
rthumb 15.7918 -59.9265
lclavicle 1.37161e-014 2.94201e-014
lhumerus -29.1574 -9.57405 90.6637
lradius 28.5983
lwrist 0.240234
lhand -19.0608 -26.1802
lfingers 7.12502
lthumb 7.24644 3.67573
rfemur 7.95777 2.31297 30.3059
rtibia 12.0237
rfoot -20.3443 1.59248
rtoes 25.4896
lfemur -18.9212 4.07987 -8.57183
ltibia 47.2681
lfoot -13.145 6.81196
ltoes -8.24989
1798
root -20.7689 16.7011 14.9979 -184.207 312.282 -537.241
lowerback 6.33276 2.61447 3.66708
upperback 6.48961 3.15753 2.65837
thorax 3.23115 1.48982 0.583118
lowerneck -16.1512 -6.89034 -4.35223
upperneck 24.4604 -15.863 18.6986
head 12.9522 -5.92134 5.09572
rclavicle 2.74323e-014 2.94201e-014
rhumerus -16.2161 27.4207 -90.6391
rradius 40.2703
rwrist -0.962078
rhand -10.0093 -30.6864
rfingers 7.12502
rthumb 15.9747 -60.0477
lclavicle 2.74323e-014 2.94201e-014
lhumerus -28.8304 -9.4209 90.1807
lradius 28.2436
lwrist -0.138662
lhand -19.3634 -26.2697
lfingers 7.12502
lthumb 6.95436 3.59605
rfemur 8.44378 2.78677 30.2512
rtibia 12.0461
rfoot -20.573 1.87543
rtoes 25.9189
lfemur -19.5235 3.6159 -8.4751
ltibia 45.5591
lfoot -12.6823 7.10303
ltoes -12.1754
